<mxfile host="app.diagrams.net" agent="Mozilla/5.0 (Macintosh; Intel Mac OS X 10_15_7) AppleWebKit/537.36 (KHTML, like Gecko) Chrome/139.0.0.0 Safari/537.36 Edg/139.0.0.0" version="28.1.1">
  <diagram name="第 1 页" id="XQBJljfGJfzn4Xt06g0b">
    <mxGraphModel dx="1418" dy="827" grid="1" gridSize="10" guides="1" tooltips="1" connect="1" arrows="1" fold="1" page="1" pageScale="1" pageWidth="3300" pageHeight="4681" math="0" shadow="0">
      <root>
        <mxCell id="0" />
        <mxCell id="1" parent="0" />
        <mxCell id="n5IOy25mbfWYR4SkcpzC-1" value="小程序" style="shape=umlLifeline;perimeter=lifelinePerimeter;whiteSpace=wrap;html=1;container=1;dropTarget=0;collapsible=0;recursiveResize=0;outlineConnect=0;portConstraint=eastwest;newEdgeStyle={&quot;edgeStyle&quot;:&quot;elbowEdgeStyle&quot;,&quot;elbow&quot;:&quot;vertical&quot;,&quot;curved&quot;:0,&quot;rounded&quot;:0};" vertex="1" parent="1">
          <mxGeometry x="770" y="160" width="184.38" height="730" as="geometry" />
        </mxCell>
        <mxCell id="n5IOy25mbfWYR4SkcpzC-46" value="" style="html=1;points=[[0,0,0,0,5],[0,1,0,0,-5],[1,0,0,0,5],[1,1,0,0,-5]];perimeter=orthogonalPerimeter;outlineConnect=0;targetShapes=umlLifeline;portConstraint=eastwest;newEdgeStyle={&quot;curved&quot;:0,&quot;rounded&quot;:0};" vertex="1" parent="n5IOy25mbfWYR4SkcpzC-1">
          <mxGeometry x="84.38" y="130" width="10" height="480" as="geometry" />
        </mxCell>
        <mxCell id="n5IOy25mbfWYR4SkcpzC-31" value="" style="shape=umlLifeline;perimeter=lifelinePerimeter;whiteSpace=wrap;html=1;container=1;dropTarget=0;collapsible=0;recursiveResize=0;outlineConnect=0;portConstraint=eastwest;newEdgeStyle={&quot;curved&quot;:0,&quot;rounded&quot;:0};participant=umlActor;" vertex="1" parent="1">
          <mxGeometry x="570" y="170" width="30" height="720" as="geometry" />
        </mxCell>
        <mxCell id="n5IOy25mbfWYR4SkcpzC-37" value="" style="html=1;points=[[0,0,0,0,5],[0,1,0,0,-5],[1,0,0,0,5],[1,1,0,0,-5]];perimeter=orthogonalPerimeter;outlineConnect=0;targetShapes=umlLifeline;portConstraint=eastwest;newEdgeStyle={&quot;curved&quot;:0,&quot;rounded&quot;:0};" vertex="1" parent="n5IOy25mbfWYR4SkcpzC-31">
          <mxGeometry x="10" y="90" width="10" height="120" as="geometry" />
        </mxCell>
        <mxCell id="n5IOy25mbfWYR4SkcpzC-32" value="用户" style="text;html=1;align=center;verticalAlign=middle;resizable=0;points=[];autosize=1;strokeColor=none;fillColor=none;" vertex="1" parent="1">
          <mxGeometry x="555" y="138" width="50" height="30" as="geometry" />
        </mxCell>
        <mxCell id="n5IOy25mbfWYR4SkcpzC-33" value="admin-web" style="shape=umlLifeline;perimeter=lifelinePerimeter;whiteSpace=wrap;html=1;container=1;dropTarget=0;collapsible=0;recursiveResize=0;outlineConnect=0;portConstraint=eastwest;newEdgeStyle={&quot;edgeStyle&quot;:&quot;elbowEdgeStyle&quot;,&quot;elbow&quot;:&quot;vertical&quot;,&quot;curved&quot;:0,&quot;rounded&quot;:0};" vertex="1" parent="1">
          <mxGeometry x="1560" y="160" width="100" height="730" as="geometry" />
        </mxCell>
        <mxCell id="n5IOy25mbfWYR4SkcpzC-52" value="" style="html=1;points=[[0,0,0,0,5],[0,1,0,0,-5],[1,0,0,0,5],[1,1,0,0,-5]];perimeter=orthogonalPerimeter;outlineConnect=0;targetShapes=umlLifeline;portConstraint=eastwest;newEdgeStyle={&quot;curved&quot;:0,&quot;rounded&quot;:0};" vertex="1" parent="n5IOy25mbfWYR4SkcpzC-33">
          <mxGeometry x="45" y="190" width="10" height="90" as="geometry" />
        </mxCell>
        <mxCell id="n5IOy25mbfWYR4SkcpzC-35" value="goods-web" style="shape=umlLifeline;perimeter=lifelinePerimeter;whiteSpace=wrap;html=1;container=1;dropTarget=0;collapsible=0;recursiveResize=0;outlineConnect=0;portConstraint=eastwest;newEdgeStyle={&quot;edgeStyle&quot;:&quot;elbowEdgeStyle&quot;,&quot;elbow&quot;:&quot;vertical&quot;,&quot;curved&quot;:0,&quot;rounded&quot;:0};" vertex="1" parent="1">
          <mxGeometry x="1220" y="160" width="100" height="730" as="geometry" />
        </mxCell>
        <mxCell id="n5IOy25mbfWYR4SkcpzC-55" value="" style="html=1;points=[[0,0,0,0,5],[0,1,0,0,-5],[1,0,0,0,5],[1,1,0,0,-5]];perimeter=orthogonalPerimeter;outlineConnect=0;targetShapes=umlLifeline;portConstraint=eastwest;newEdgeStyle={&quot;curved&quot;:0,&quot;rounded&quot;:0};" vertex="1" parent="n5IOy25mbfWYR4SkcpzC-35">
          <mxGeometry x="45" y="273" width="10" height="80" as="geometry" />
        </mxCell>
        <mxCell id="n5IOy25mbfWYR4SkcpzC-59" value="" style="html=1;points=[[0,0,0,0,5],[0,1,0,0,-5],[1,0,0,0,5],[1,1,0,0,-5]];perimeter=orthogonalPerimeter;outlineConnect=0;targetShapes=umlLifeline;portConstraint=eastwest;newEdgeStyle={&quot;curved&quot;:0,&quot;rounded&quot;:0};" vertex="1" parent="n5IOy25mbfWYR4SkcpzC-35">
          <mxGeometry x="45" y="510" width="10" height="80" as="geometry" />
        </mxCell>
        <mxCell id="n5IOy25mbfWYR4SkcpzC-73" value="" style="html=1;points=[[0,0,0,0,5],[0,1,0,0,-5],[1,0,0,0,5],[1,1,0,0,-5]];perimeter=orthogonalPerimeter;outlineConnect=0;targetShapes=umlLifeline;portConstraint=eastwest;newEdgeStyle={&quot;curved&quot;:0,&quot;rounded&quot;:0};" vertex="1" parent="n5IOy25mbfWYR4SkcpzC-35">
          <mxGeometry x="50" y="283" width="10" height="40" as="geometry" />
        </mxCell>
        <mxCell id="n5IOy25mbfWYR4SkcpzC-74" value="self call" style="html=1;align=left;spacingLeft=2;endArrow=block;rounded=0;edgeStyle=orthogonalEdgeStyle;curved=0;rounded=0;" edge="1" target="n5IOy25mbfWYR4SkcpzC-73" parent="n5IOy25mbfWYR4SkcpzC-35">
          <mxGeometry x="0.0118" relative="1" as="geometry">
            <mxPoint x="55" y="283" as="sourcePoint" />
            <Array as="points">
              <mxPoint x="85" y="313" />
            </Array>
            <mxPoint as="offset" />
          </mxGeometry>
        </mxCell>
        <mxCell id="n5IOy25mbfWYR4SkcpzC-91" value="" style="html=1;points=[[0,0,0,0,5],[0,1,0,0,-5],[1,0,0,0,5],[1,1,0,0,-5]];perimeter=orthogonalPerimeter;outlineConnect=0;targetShapes=umlLifeline;portConstraint=eastwest;newEdgeStyle={&quot;curved&quot;:0,&quot;rounded&quot;:0};" vertex="1" parent="n5IOy25mbfWYR4SkcpzC-35">
          <mxGeometry x="45" y="140" width="10" height="80" as="geometry" />
        </mxCell>
        <mxCell id="n5IOy25mbfWYR4SkcpzC-47" value="访问直播预约列表" style="html=1;verticalAlign=bottom;startArrow=oval;endArrow=block;startSize=8;curved=0;rounded=0;entryX=0;entryY=0;entryDx=0;entryDy=5;" edge="1" target="n5IOy25mbfWYR4SkcpzC-46" parent="1" source="n5IOy25mbfWYR4SkcpzC-31">
          <mxGeometry relative="1" as="geometry">
            <mxPoint x="745" y="295" as="sourcePoint" />
          </mxGeometry>
        </mxCell>
        <mxCell id="n5IOy25mbfWYR4SkcpzC-56" value="" style="edgeStyle=orthogonalEdgeStyle;rounded=0;orthogonalLoop=1;jettySize=auto;html=1;curved=0;" edge="1" parent="1">
          <mxGeometry relative="1" as="geometry">
            <mxPoint x="864.3800000000001" y="454" as="sourcePoint" />
            <mxPoint x="1265" y="454" as="targetPoint" />
            <Array as="points">
              <mxPoint x="950" y="454" />
              <mxPoint x="950" y="454" />
            </Array>
          </mxGeometry>
        </mxCell>
        <mxCell id="n5IOy25mbfWYR4SkcpzC-57" value="访问直播预约列表接口" style="edgeLabel;html=1;align=center;verticalAlign=middle;resizable=0;points=[];" vertex="1" connectable="0" parent="n5IOy25mbfWYR4SkcpzC-56">
          <mxGeometry x="-0.2242" y="-1" relative="1" as="geometry">
            <mxPoint as="offset" />
          </mxGeometry>
        </mxCell>
        <mxCell id="n5IOy25mbfWYR4SkcpzC-61" value="" style="edgeStyle=orthogonalEdgeStyle;rounded=0;orthogonalLoop=1;jettySize=auto;html=1;curved=0;dashed=1;" edge="1" parent="1">
          <mxGeometry relative="1" as="geometry">
            <mxPoint x="1265" y="503" as="sourcePoint" />
            <mxPoint x="861.69" y="503" as="targetPoint" />
            <Array as="points">
              <mxPoint x="1020" y="503" />
              <mxPoint x="1020" y="503" />
            </Array>
          </mxGeometry>
        </mxCell>
        <mxCell id="n5IOy25mbfWYR4SkcpzC-90" value="返回直播预约列表信息" style="edgeLabel;html=1;align=center;verticalAlign=middle;resizable=0;points=[];" vertex="1" connectable="0" parent="n5IOy25mbfWYR4SkcpzC-61">
          <mxGeometry x="0.4381" relative="1" as="geometry">
            <mxPoint y="1" as="offset" />
          </mxGeometry>
        </mxCell>
        <mxCell id="n5IOy25mbfWYR4SkcpzC-63" value="微信开发平台" style="shape=umlLifeline;perimeter=lifelinePerimeter;whiteSpace=wrap;html=1;container=1;dropTarget=0;collapsible=0;recursiveResize=0;outlineConnect=0;portConstraint=eastwest;newEdgeStyle={&quot;edgeStyle&quot;:&quot;elbowEdgeStyle&quot;,&quot;elbow&quot;:&quot;vertical&quot;,&quot;curved&quot;:0,&quot;rounded&quot;:0};" vertex="1" parent="1">
          <mxGeometry x="1020" y="160" width="100" height="730" as="geometry" />
        </mxCell>
        <mxCell id="n5IOy25mbfWYR4SkcpzC-66" value="" style="html=1;points=[[0,0,0,0,5],[0,1,0,0,-5],[1,0,0,0,5],[1,1,0,0,-5]];perimeter=orthogonalPerimeter;outlineConnect=0;targetShapes=umlLifeline;portConstraint=eastwest;newEdgeStyle={&quot;curved&quot;:0,&quot;rounded&quot;:0};" vertex="1" parent="n5IOy25mbfWYR4SkcpzC-63">
          <mxGeometry x="45" y="480" width="10" height="70" as="geometry" />
        </mxCell>
        <mxCell id="n5IOy25mbfWYR4SkcpzC-69" style="edgeStyle=orthogonalEdgeStyle;rounded=0;orthogonalLoop=1;jettySize=auto;html=1;curved=0;dashed=1;" edge="1" parent="1">
          <mxGeometry relative="1" as="geometry">
            <mxPoint x="1065" y="700" as="sourcePoint" />
            <mxPoint x="861.69" y="700" as="targetPoint" />
            <Array as="points">
              <mxPoint x="1050" y="700" />
              <mxPoint x="1050" y="700" />
            </Array>
          </mxGeometry>
        </mxCell>
        <mxCell id="n5IOy25mbfWYR4SkcpzC-70" value="返回直播预备信息" style="edgeLabel;html=1;align=center;verticalAlign=middle;resizable=0;points=[];" vertex="1" connectable="0" parent="n5IOy25mbfWYR4SkcpzC-69">
          <mxGeometry x="0.1706" relative="1" as="geometry">
            <mxPoint as="offset" />
          </mxGeometry>
        </mxCell>
        <mxCell id="n5IOy25mbfWYR4SkcpzC-71" style="edgeStyle=orthogonalEdgeStyle;rounded=0;orthogonalLoop=1;jettySize=auto;html=1;curved=0;endArrow=open;endFill=0;" edge="1" parent="1">
          <mxGeometry relative="1" as="geometry">
            <mxPoint x="867.44" y="730" as="sourcePoint" />
            <mxPoint x="1272.56" y="730" as="targetPoint" />
            <Array as="points">
              <mxPoint x="1113.06" y="730" />
              <mxPoint x="1113.06" y="730" />
            </Array>
          </mxGeometry>
        </mxCell>
        <mxCell id="n5IOy25mbfWYR4SkcpzC-72" value="异步上报直播预告信息" style="edgeLabel;html=1;align=center;verticalAlign=middle;resizable=0;points=[];" vertex="1" connectable="0" parent="n5IOy25mbfWYR4SkcpzC-71">
          <mxGeometry x="-0.1083" y="-2" relative="1" as="geometry">
            <mxPoint as="offset" />
          </mxGeometry>
        </mxCell>
        <mxCell id="n5IOy25mbfWYR4SkcpzC-75" value="&lt;font style=&quot;font-size: 10px;&quot;&gt;opt&lt;/font&gt;" style="shape=umlFrame;whiteSpace=wrap;html=1;pointerEvents=0;width=110;height=30;" vertex="1" parent="1">
          <mxGeometry x="730" y="620" width="590" height="160" as="geometry" />
        </mxCell>
        <mxCell id="n5IOy25mbfWYR4SkcpzC-76" value="Text" style="text;html=1;align=center;verticalAlign=middle;resizable=0;points=[];autosize=1;strokeColor=none;fillColor=none;" vertex="1" parent="1">
          <mxGeometry x="1335" y="410" width="50" height="30" as="geometry" />
        </mxCell>
        <mxCell id="n5IOy25mbfWYR4SkcpzC-77" style="edgeStyle=orthogonalEdgeStyle;rounded=0;orthogonalLoop=1;jettySize=auto;html=1;curved=0;" edge="1" parent="1">
          <mxGeometry relative="1" as="geometry">
            <mxPoint x="864.3800000000001" y="660" as="sourcePoint" />
            <mxPoint x="1069.5" y="660" as="targetPoint" />
            <Array as="points">
              <mxPoint x="900" y="660" />
              <mxPoint x="900" y="660" />
            </Array>
          </mxGeometry>
        </mxCell>
        <mxCell id="n5IOy25mbfWYR4SkcpzC-78" value="获取直播预告信息" style="edgeLabel;html=1;align=center;verticalAlign=middle;resizable=0;points=[];" vertex="1" connectable="0" parent="n5IOy25mbfWYR4SkcpzC-77">
          <mxGeometry x="-0.2237" relative="1" as="geometry">
            <mxPoint as="offset" />
          </mxGeometry>
        </mxCell>
        <mxCell id="n5IOy25mbfWYR4SkcpzC-92" value="获取直播日历+小红点标识" style="html=1;verticalAlign=bottom;endArrow=block;curved=0;rounded=0;entryX=0;entryY=0;entryDx=0;entryDy=5;" edge="1" target="n5IOy25mbfWYR4SkcpzC-91" parent="1" source="n5IOy25mbfWYR4SkcpzC-1">
          <mxGeometry x="0.0017" relative="1" as="geometry">
            <mxPoint x="1195" y="305" as="sourcePoint" />
            <mxPoint as="offset" />
          </mxGeometry>
        </mxCell>
        <mxCell id="n5IOy25mbfWYR4SkcpzC-93" value="return" style="html=1;verticalAlign=bottom;endArrow=open;dashed=1;endSize=8;curved=0;rounded=0;exitX=0;exitY=1;exitDx=0;exitDy=-5;" edge="1" source="n5IOy25mbfWYR4SkcpzC-91" parent="1" target="n5IOy25mbfWYR4SkcpzC-1">
          <mxGeometry relative="1" as="geometry">
            <mxPoint x="1195" y="375" as="targetPoint" />
          </mxGeometry>
        </mxCell>
      </root>
    </mxGraphModel>
  </diagram>
</mxfile>
